<svg xmlns="http://www.w3.org/2000/svg" width="76" height="76" viewBox="0 0 76 76"><defs><style>.a{fill:#59b2d6;}</style></defs><g transform="translate(0 0)"><g transform="translate(0 0)"><path class="a" d="M64.866,11.126A38,38,0,1,0,76,37.992,38,38,0,0,0,64.866,11.126ZM57.55,52.933l-.005.005v-.013l-1.925,1.913a10.133,10.133,0,0,1-9.563,2.736,33.671,33.671,0,0,1-9.779-4.383,45.18,45.18,0,0,1-7.714-6.219A45.528,45.528,0,0,1,22.8,39.98a35.463,35.463,0,0,1-4.332-8.765A10.133,10.133,0,0,1,21,20.866l2.255-2.255a1.609,1.609,0,0,1,2.275-.005l.005.005,7.119,7.119a1.609,1.609,0,0,1,.005,2.275l-.005.005-4.18,4.18a3.407,3.407,0,0,0-.355,4.433,48.886,48.886,0,0,0,5,5.839A48.586,48.586,0,0,0,39.71,48a3.433,3.433,0,0,0,4.383-.38l4.041-4.1a1.609,1.609,0,0,1,2.275-.005l.005.005,7.131,7.144A1.608,1.608,0,0,1,57.55,52.933Z" transform="translate(0 0)"/></g></g></svg>