<svg xmlns="http://www.w3.org/2000/svg" width="76" height="76" viewBox="0 0 76 76"><defs><style>.a{fill:#59b2d6;}</style></defs><path class="a" d="M164.288,144H133.625l15.331,13.141Zm0,0" transform="translate(-110.956 -119.571)"/><path class="a" d="M137.643,168.083a1.355,1.355,0,0,1-.883-.327L120,153.391v25.55h35.286v-25.55l-16.76,14.365a1.355,1.355,0,0,1-.883.327Zm0,0" transform="translate(-99.643 -127.369)"/><path class="a" d="M38,0A38,38,0,1,0,76,38,38,38,0,0,0,38,0ZM58.357,52.929A1.357,1.357,0,0,1,57,54.286H19a1.357,1.357,0,0,1-1.357-1.357V23.071A1.357,1.357,0,0,1,19,21.714H57a1.357,1.357,0,0,1,1.357,1.357Zm0,0"/></svg>