<svg xmlns="http://www.w3.org/2000/svg" width="53.999" height="54" viewBox="0 0 53.999 54"><defs><style>.a{fill:#4ae870;}</style></defs><g transform="translate(0 0)"><g transform="translate(0 0)"><path class="a" d="M46.088,7.9A27,27,0,1,0,54,26.993,27,27,0,0,0,46.088,7.9ZM40.89,37.61l0,0V37.6l-1.368,1.359a7.2,7.2,0,0,1-6.795,1.944,23.924,23.924,0,0,1-6.948-3.114,32.1,32.1,0,0,1-5.481-4.419A32.348,32.348,0,0,1,16.2,28.407a25.2,25.2,0,0,1-3.078-6.228,7.2,7.2,0,0,1,1.8-7.353l1.6-1.6a1.143,1.143,0,0,1,1.616,0l0,0L23.2,18.282a1.143,1.143,0,0,1,0,1.616l0,0-2.97,2.97a2.421,2.421,0,0,0-.252,3.15,34.734,34.734,0,0,0,3.555,4.149,34.521,34.521,0,0,0,4.68,3.933,2.439,2.439,0,0,0,3.114-.27L34.2,30.918a1.143,1.143,0,0,1,1.616,0l0,0,5.067,5.076A1.143,1.143,0,0,1,40.89,37.61Z" transform="translate(0 0)"/></g></g></svg>