<svg xmlns="http://www.w3.org/2000/svg" width="87.13" height="99.331" viewBox="0 0 87.13 99.331"><defs><style>.a{fill:#59b2d6;}</style></defs><g transform="translate(-0.052 -12)"><g transform="translate(0.052 12)"><path class="a" d="M80.525,79.424h0c.21-5.4.383-11.346-1.913-16.149-1.148-2.449-3.616-4.5-6.046-3.6a.249.249,0,0,0,0-.115c.1-.383.191-.784.306-1.167a1.8,1.8,0,0,0,0-1.359c.708-9.127.325-18.388.517-27.534,0-5.109.478-10.772.344-16.245V10.791a13.776,13.776,0,0,0-.612-4.9c-.1-.631-.172-1.263-.287-1.913a.784.784,0,0,0-1.052-.651,8.419,8.419,0,0,0-1.913-1.818A4.229,4.229,0,0,0,65.735.918a.9.9,0,0,0-.364.918c-.172,4.554-.67,9.318-.4,13.949-4.248-5.338-10.313-4.994-17.507-4.86-1.76-.115-3.463-.153-5.013-.172H38.01c-7.96-.421-14.542-.5-18.713,6.62a51.2,51.2,0,0,0-.421-16.359.344.344,0,0,0-.364-.268.555.555,0,0,0-.287-.517C17-.421,15.26.459,14.246,1.09A4.324,4.324,0,0,0,12.084,3.6a.574.574,0,0,0-.191.4c0,10.2-.23,20.263.21,30.48.287,6.563-.593,13.394-.268,20.129,0,1.569-.115,3.138,0,4.707-2.774-.9-5.606,2.507-6.41,4.994a24.147,24.147,0,0,0-.593,9.8,14.427,14.427,0,0,0,0,5.511,11.92,11.92,0,0,0-2.717-.44,1.339,1.339,0,0,0-1.3,1.014C.278,82.7-.793,88.9,1.254,90.943c1.531,1.531,4.5,1.818,7.654,1.626-2.239,4.267,3.712,6.333,7.06,5.931a9.414,9.414,0,0,0,5.989-2.966,6.352,6.352,0,0,0,1.512-4.458c12.628-.364,25.295.517,37.962,1.052a6.065,6.065,0,0,0,1.205,4.726A8.17,8.17,0,0,0,68.643,99.3a9.375,9.375,0,0,0,6.429-1.913,4.745,4.745,0,0,0,1.416-4.937c3.023,0,6.046,0,9.05-.191a1.32,1.32,0,0,0,1.3-1.282C87.72,84.284,87.318,79.96,80.525,79.424ZM19.948,74.468a5.377,5.377,0,0,1-3.827,1.473c-2.124,0-4.535-1.913-4.229-4a6.626,6.626,0,0,0,2.315-.9,7.462,7.462,0,0,1,2.755-.383c1.225,0,3.463.517,3.961,1.913C21.153,73.244,20.388,74.009,19.948,74.468Zm28.7,2.583c-6.812.364-13.566-.325-20.358-.459.23-1.416.364-2.87.517-4.324a89.68,89.68,0,0,0,26.29-.1c-.23,4.535-1.8,4.65-6.391,4.879Zm6.525-6.62c-8.591-.9-17.584,1.014-26.252.976.153-1.626.268-3.253.364-4.879,8.228,2.411,17.431.957,26,1.473Zm-25.85-18.6c6.2.651,12.475,0,18.732.823,2.43.287,6.85-1.492,7.558,2.239a35.207,35.207,0,0,0-11.48-.421c-4.917.268-9.758.325-14.657.21ZM55.441,65.055c-8.476-1.569-17.469,1.033-26.06,0V60.08c3.119,1.913,7.654,1.55,11.078,1.913a48.447,48.447,0,0,0,14.963,0C55.441,63.141,55.441,64.04,55.441,65.055Zm.134-4.937c-4.305-.287-8.668.115-12.973,0-3.827-.153-9.127.4-12.8-1.033a.631.631,0,0,0-.325,0v-3.2a49.748,49.748,0,0,0,12.686,1.473,78.277,78.277,0,0,0,13.566-.153c-.019.88-.077,1.894-.134,2.889ZM20.809,42.094a.517.517,0,0,0-.249,0c0-4.879.344-9.758.459-14.637A217.8,217.8,0,0,0,46.008,28.7c6.161,0,12.265,1.684,18.407,1.091-.536,2.3-.555,4.8-.88,7.1a25.161,25.161,0,0,0-.287,4.937C49.184,42.19,34.776,43.472,20.809,42.094ZM62.444,71.2a.957.957,0,0,0,1.11-.115A4.879,4.879,0,0,1,68.3,70.24c1.205.325,3.827,1.531,3.463,3.157-.478,2.258-4.248,2.87-6.065,2.813A3.425,3.425,0,0,1,62.444,71.2Z" transform="translate(-0.052 0)"/></g></g></svg>