<svg xmlns="http://www.w3.org/2000/svg" width="100.152" height="99.124" viewBox="0 0 100.152 99.124"><defs><style>.a{fill:#59b2d6;}</style></defs><g transform="translate(0.002 0.001)"><g transform="translate(-0.002 -0.001)"><path class="a" d="M55.429,1.174c-7.253-3.91-19.766,2.952-26.081,5.865A50.09,50.09,0,0,0,2.211,38.321c-8.759,28,9.521,52.69,36.522,59.22,28.545,6.921,54.059-9.443,60.159-37.812A47.763,47.763,0,0,0,55.429,1.174ZM13.942,60.023c-3.011-10.5.254-21.7,6-30.558A47.314,47.314,0,0,1,39.3,13.335C59.281,9.776,80.865,18.281,87.18,38.966c5.865,18.965-8.622,40.569-26.316,46.688C41.157,92.478,19.553,79.281,13.942,60.023Z" transform="translate(0.002 0.001)"/><path class="a" d="M71.439,27.006a17.088,17.088,0,0,0-5.3-4.5c-.45-1.76-3.128-2.659-4.028-.7-2.092,4.516-9.267,9.541-13.686,4.888-3.441-3.6-2.737-11.222,0-14.918a.978.978,0,0,0-1.095-1.427l-.43.2c-2.874-3.148-10.069-2.287-13.256-.43h-.1a3.715,3.715,0,0,0-.9.352,1.212,1.212,0,0,0-.587,1.036c0,2.072,2.287,3.5,2.776,5.689a14.057,14.057,0,0,1-1.408,8.348c-3.324,7.1-11.613,2.776-12.923-3.285a1.329,1.329,0,0,0-.782-.919,1.8,1.8,0,0,0-2.4-.86,15.113,15.113,0,0,0-4.692,4.81,15.093,15.093,0,0,0-2.639,6.98.8.8,0,0,0,0,.215c-.508,1.329,0,3.05,1.955,2.894,5.083-.45,12.708.8,12.708,7.39,0,6-8.818,9.169-13.451,7.351-.782-.313-1.134.743-.723,1.271,0,.137.215.235.332.371a15.484,15.484,0,0,0,6,11.731,1.681,1.681,0,0,0,2.151,0l.391-.117c1.114-.567,1.31-1.29,1.838-2.385a12.044,12.044,0,0,1,3.715-4.164c2.424-1.818,6.511-3.187,8.994-.743s3.91,11.007.2,13.217a1.017,1.017,0,0,0-.489,1.075c-1.447.567-1.584,3.187.215,3.519a74.979,74.979,0,0,0,14.663.782,1.955,1.955,0,0,0,1.955-1.955,1.955,1.955,0,0,0,.9-2.894c-2.5-3.91-6.022-12.063-1-15.641,4.184-2.913,10.831,5.67,12.884,8.466a1.31,1.31,0,0,0,2.131,0,13.471,13.471,0,0,0,8-9.776,1.74,1.74,0,0,0-1.134-1.857,2.4,2.4,0,0,0-2.835-2.268,10.558,10.558,0,0,1-8.368-.117c-2.366-1.193-4.966-3.91-4.536-6.726.821-5.4,9.776-10.284,14.253-6.628.919.723,2.483,0,2.248-1.095C75.076,32.48,72.749,28.511,71.439,27.006ZM44.869,46.557c-3.05,3.461-9.091,1.6-10.734-2.366a8.759,8.759,0,0,1,1.642-8.818,9.424,9.424,0,0,1,5.083-2.112c2.307,1.134,4.712.88,5.865,4.145a9.776,9.776,0,0,1-1.857,9.15Z" transform="translate(9.369 8.071)"/></g></g></svg>