<svg xmlns="http://www.w3.org/2000/svg" width="87.22" height="104.87" viewBox="0 0 87.22 104.87"><defs><style>.a{fill:#59b2d6;}.b{fill:#fff;}</style></defs><g transform="translate(0.024)"><g transform="translate(-0.024)"><path class="a" d="M5.254,11.568a41.66,41.66,0,0,0,23.83-.942A41.148,41.148,0,0,0,45.46,0,31.629,31.629,0,0,0,61.688,12.163a31.745,31.745,0,0,0,20.954-.595,55.36,55.36,0,0,1,4.528,23.7c-.512,13.4-6.065,22.8-13.617,35.249A173.516,173.516,0,0,1,46.121,104.87,100.143,100.143,0,0,1,12.558,71.819C7.187,63.143-.646,50.419.015,33.051A56.748,56.748,0,0,1,5.254,11.568Z" transform="translate(0.024)"/><path class="b" d="M15.919,28.754c2.264-2.694,7.189-2.875,16.938-3.14,9.006-.231,13.567-.314,15.666,1.884,1.884,1.95,1.8,6.759,1.653,16.31-.248,10.213-1.074,11.568-1.884,12.543s-2.4,2.3-14.427,3.454c-8.643.826-13.022,1.206-15.038-.314-3.173-2.38-3.47-7.337-4.082-17.252C14.2,34.786,14.019,31.018,15.919,28.754Z" transform="translate(9.42 16.641)"/><path class="b" d="M16.281,37.249a21.219,21.219,0,0,1,1.058-16.525c.644-1.223,4.792-9.056,11.915-9.419,8.56-.413,13.947,10.328,14.741,11.915A25.548,25.548,0,0,1,46.572,35.7l-3.9-.744a21.714,21.714,0,0,0-1.917-9.733c-.793-1.735-4.71-10.246-11.188-10.147-6,.1-9.535,7.5-9.915,8.362a17.054,17.054,0,0,0-.5,12.46" transform="translate(9.885 7.369)"/><path class="a" d="M27.687,44.033c.2,2.181.5,2.727.083,3.189a1.653,1.653,0,0,1-2.132.1c-.463-.4-.364-1.074-.314-2.5V41.058a2.628,2.628,0,0,1-2.181-1.967c-.116-1.289,1.653-2.446,3.206-2.264,1.239.132,2.413,1.206,2.4,2.165,0,.678-.562.76-.992,1.752A7.023,7.023,0,0,0,27.687,44.033Z" transform="translate(15.137 24.019)"/></g></g></svg>