<svg xmlns="http://www.w3.org/2000/svg" width="94.497" height="78.433" viewBox="0 0 94.497 78.433"><defs><style>.a{fill:#59b2d6;}</style></defs><g transform="translate(0.032 0.03)"><g transform="translate(-0.032 -0.03)"><path class="a" d="M22.111,21.033A4.588,4.588,0,0,0,13,21.784a5.464,5.464,0,0,0,.273,2,4.69,4.69,0,0,0,5.669,3.233,4.554,4.554,0,0,0,3.165-5.988Z" transform="translate(16.668 22.069)"/><path class="a" d="M93.391,12.129a1.343,1.343,0,0,0-.364-.137h-.2a38.524,38.524,0,0,1-16.348-4.8C72.467,4.82,68.346,2.839,64.407.562a1.025,1.025,0,0,0-1.3-.524c-5.874,2-10.587,6.831-15.938,9.973a132.4,132.4,0,0,0-13.866,9.267A194.9,194.9,0,0,0,3.252,3.613a1.678,1.678,0,1,0-3.21.979A262.252,262.252,0,0,1,5.733,33.963C6.872,43.754,7.418,57.3,3.343,66.522A.933.933,0,0,0,3.183,67.8h0a1.366,1.366,0,0,0,.182.182.455.455,0,0,0,.182,0h0a128.915,128.915,0,0,0,14.708,3.506,70.355,70.355,0,0,1,12.5,4.941,3.461,3.461,0,0,0,2.026,1.594,1.252,1.252,0,0,0,1.5.228,7.81,7.81,0,0,0,3.415-.956c8.06-4.3,16.78-6.307,25.273-9.4a.478.478,0,0,0,.228-.137h.319a.729.729,0,0,0,.546.159c3.005.82,6.034,1.821,9.107,2.641,5.874,1.571,12.523,4.1,18.6,3.962l.137.159a.5.5,0,0,0,.842-.5s0-.114,0-.159a1.116,1.116,0,0,0-.5-1.662c-5.92-19.467-7.354-39.23,2.095-58.037a1.685,1.685,0,0,0-.956-2.186ZM34.376,20.986c4.372-1.3,8.447-5.009,12.545-7.286A132.446,132.446,0,0,0,61.516,4.3c-3.392,7.787-3.188,16.94-2.823,25.273,0,2,.137,4.053.182,6.125a28.643,28.643,0,0,0-14,5.328c-1.594-4.258-5.92-7.992-10.155-7.81a17.372,17.372,0,0,0,.3-6.421,30.669,30.669,0,0,0-.706-5.533A1.821,1.821,0,0,0,34.376,20.986ZM3.935,5.958a119.619,119.619,0,0,0,12.044,6.853c5.282,2.823,10.064,6.512,15.46,9.107a45.079,45.079,0,0,0,.478,4.941,48.154,48.154,0,0,0,.66,5.988c-3.893-.592-7.81,3.757-9.289,7.7a45.4,45.4,0,0,0-7.65-1.8,38.707,38.707,0,0,1-4.827-1.321c-.524-.159-1.07-.41-1.639-.615A127.5,127.5,0,0,0,3.935,5.958ZM32.8,58.918c.273,5.009-.342,9.973-.433,14.982-6.4-5.988-18.852-6.831-27.14-7.445,4.349-6.831,3.757-17.19,3.962-24.795v-2.14a24.112,24.112,0,0,0,4.007,1.5,46.356,46.356,0,0,0,9.4,2.846A10.7,10.7,0,0,0,33.055,54.318h.159A9.107,9.107,0,0,0,32.8,58.918ZM33.67,51.7a8.014,8.014,0,0,1-8.4-7.923,6.306,6.306,0,0,1,0-.683,1.685,1.685,0,0,0,0-.592c.615-4.554,4.394-6.489,8.4-7.855h0c2.709,1.8,5.214,2.732,7.263,5.464A7.354,7.354,0,0,1,42,46.1C41.366,49.856,37.017,51.563,33.67,51.7ZM45.054,71.326a46.674,46.674,0,0,0-7.4,2.8,23.883,23.883,0,0,1-2.5,1.275c.3-4.189.66-8.424.66-12.636a34.153,34.153,0,0,0-.524-8.447,11.521,11.521,0,0,0,10.064-7.9,7.969,7.969,0,0,0,.137-3.37c2.095-.751,4.167-1.571,6.261-2.277s4.872-1.229,7.172-2.163c.2,9.289.569,18.921,3.734,27.322-6.239-.569-12.067,3.506-17.691,5.4Zm44.558.364c-5.669-1.617-19.33-5.305-24.931-5.259-1.343-9.358-2.482-18.6-2.914-27.823,3.688,1.047,7.354,2.14,11.02,3.233a52.14,52.14,0,0,0,11.908,1.3c0,.751,0,1.5,0,2.277-.41,7.9.41,18.9,4.827,26.275Zm-4.9-30.806a108.561,108.561,0,0,1-12.864-2.459,30.578,30.578,0,0,0-10.246-2.277A123.267,123.267,0,0,1,64.589,3.2c2.277,2.937,7.627,5.1,10.246,6.648A33.743,33.743,0,0,0,90.591,14.61a83.468,83.468,0,0,0-5.874,26.275Z" transform="translate(0.032 0.03)"/></g></g></svg>