<svg xmlns="http://www.w3.org/2000/svg" width="85.574" height="86.547" viewBox="0 0 85.574 86.547"><defs><style>.a{fill:#59b2d6;}</style></defs><g transform="translate(-0.002 -0.004)"><g transform="translate(0.002 0.004)"><path class="a" d="M16.037,61.121l11.936-2.669,6.9-10.785a9.657,9.657,0,0,1-1.866-7.14,10.243,10.243,0,0,1,11.74-8.355h0L46.169,30,64.615,16.981l7.411-5.328A42.621,42.621,0,0,0,49.988.564C27.473-3.18,3.808,12.2.412,35.806-1.53,49.218,3.57,61.913,12.489,70.908Z" transform="translate(-0.002 -0.004)"/><path class="a" d="M69.545,12.29,49.005,30.736l-2.767,4.026a10.254,10.254,0,0,1,5.165,11.2,10.243,10.243,0,0,1-11.382,7.324,10.406,10.406,0,0,1-5.078-2.246l-1.389,2-6.1,9.6-10.72,1.931-5.176,8.68A44,44,0,0,0,35.431,85.064c21.093,3.082,42.794-10.275,48-31.011C87.318,38.581,81.123,22.533,69.545,12.29Z" transform="translate(0.982 1.041)"/></g></g></svg>