<svg xmlns="http://www.w3.org/2000/svg" width="130.427" height="93.724" viewBox="0 0 130.427 93.724"><defs><style>.a{fill:#59b2d6;}</style></defs><g transform="translate(-0.002 0.011)"><g transform="translate(0.002 -0.011)"><path class="a" d="M24.713,36.833a9.828,9.828,0,0,0-3.952-7.169A8.562,8.562,0,0,0,14.4,28.372a5.066,5.066,0,0,0-5.066.963,12.666,12.666,0,0,0-4.281,8.917C4.169,45.268,9.793,52.056,17.139,50.41,22.787,49.143,25.321,41.975,24.713,36.833Zm-8.359,7.6c-2.533,2.254-5.6-1.444-5.775-3.774a7.27,7.27,0,0,1,3.04-6.89c2.077.76,4.129,0,4.889,3.065a8,8,0,0,1-2.153,7.574Z" transform="translate(7.604 43.065)"/><path class="a" d="M54.963,36.31A8.309,8.309,0,0,0,46.5,29.141c-2.533-1.6-6.1.152-8.081,1.8a10.943,10.943,0,0,0-3.268,9.55c.887,6.181,7.827,10.867,13.755,8.309A11.931,11.931,0,0,0,54.963,36.31Zm-8.131,6.814c-1.824,1.6-5.066-.937-5.8-3.116-.937-3.293,2.229-4.661,4.56-6.181,1.7.431,3.242.861,3.47,2.913A7.6,7.6,0,0,1,46.832,43.124Z" transform="translate(53.702 43.739)"/><path class="a" d="M10.357,31.16a4.028,4.028,0,0,0-4.838-2.736,12.412,12.412,0,0,0-3.8,1.013,3.572,3.572,0,0,0,0,6.1A9.6,9.6,0,0,0,7.6,36a3.926,3.926,0,0,0,2.761-4.838Z" transform="translate(-0.002 43.418)"/><path class="a" d="M121.513,76.01c-1.545-2.533-4.256-2.128-6.839-1.925a226.428,226.428,0,0,0,.228-28.016,13.375,13.375,0,0,0,0-6.409,2.2,2.2,0,0,0-.2-.937c0-.152,0-.3,0-.481-1.191-5.32-6.383-9.221-9.9-13.02-3.014-3.242-6.054-7.118-10.462-8.157a2.28,2.28,0,0,0-1.292-.937,50.839,50.839,0,0,0-13.349-.912,17.732,17.732,0,0,0-8.967,1.14,2.533,2.533,0,0,0-2.533,2.533c-.887,9.676-.76,19.4-.684,29.131a136.407,136.407,0,0,0,.709,19.834,5.622,5.622,0,0,1-.709-.785c-1.8-2.178-3.5-4.484-5.066-6.763-4.382-6-8.613-12.134-12.868-18.238a264.28,264.28,0,0,0-18.086-24.9A8.081,8.081,0,0,0,32.7,15.672a10.132,10.132,0,0,0,0-8.309A11.044,11.044,0,0,0,17.884.9a9.626,9.626,0,0,0-3.977,14.439,10.512,10.512,0,0,0,0,13.451c1.8,2.305,7.777,4.788,3.166,8.081s-6.155-2.305-6.789-5.573c-.431-2.254-3.445-1.773-4.1,0C2.938,39.863,13.3,46.5,20.239,41a8.258,8.258,0,0,0,2.229-10.588,11.88,11.88,0,0,0-4.306-4c-2.913-1.976-2.786-5.8-2.533-9.069a13.223,13.223,0,0,0,10.006,2.305c1.773,17.985,3.825,36.527,9.347,53.828-2.533.228-5.066.481-7.6.912s-2.28,3.546-.608,4.636c6.1,3.977,14.16,2.229,21.05,1.52,8.283-.861,16.642,0,24.926-.912a3.952,3.952,0,0,0,3.242-2.406,1.6,1.6,0,0,0,.633-.659c2.862-6.13,6.991-9.372,13.932-9.22a14.945,14.945,0,0,1,8.663,3.192c2.685,2.153,3.014,5.345,5.066,7.827a1.95,1.95,0,0,0,.785.557,2.533,2.533,0,0,0,1.723,1.571,27.865,27.865,0,0,0,7.6.684c2.533,0,5.5.481,7.042-2.128a2.964,2.964,0,0,0,.076-3.04ZM27.357,12.683a1.52,1.52,0,0,1-.963.709,3.47,3.47,0,0,0-2.1,2.229h-.76a7.321,7.321,0,0,1-5.066-1.469,5.472,5.472,0,0,1,1.165-9.3,5.7,5.7,0,0,1,7.6,3.876A5.066,5.066,0,0,1,27.357,12.683Zm11.88,60.541c0-14.692-4.2-29.764-6.561-44.583,5.674,8,10.74,16.617,16.212,24.6,2.2,3.192,7.878,14.312,13.4,19.5-7.675.127-15.4-.025-23.051.355Zm64.569-32.677a41.7,41.7,0,0,0-11.779,0c-4.788.38-9.524-.177-14.287,0a45.6,45.6,0,0,0-1.064-16.009,39.947,39.947,0,0,0,5.775,0c2.685-.177,5.294-.481,7.979-.507,4.256,5.066,7.979,11.348,13.375,15.2Z" transform="translate(8.531 0.011)"/></g></g></svg>